<svg width="591" height="80" viewBox="0 0 591 80" fill="none" xmlns="http://www.w3.org/2000/svg">
<g clip-path="url(#clip0_271_51)">
<path d="M47.632 80V70.304L46.384 67.904V50.048C46.384 47.168 45.488 44.96 43.696 43.424C41.968 41.824 39.184 41.024 35.344 41.024C32.848 41.024 30.32 41.44 27.76 42.272C25.2 43.04 23.024 44.128 21.232 45.536L15.088 33.152C18.032 31.232 21.552 29.76 25.648 28.736C29.808 27.648 33.936 27.104 38.032 27.104C46.48 27.104 53.008 29.056 57.616 32.96C62.288 36.8 64.624 42.848 64.624 51.104V80H47.632ZM32.272 80.864C28.112 80.864 24.592 80.16 21.712 78.752C18.832 77.344 16.624 75.424 15.088 72.992C13.616 70.56 12.88 67.84 12.88 64.832C12.88 61.632 13.68 58.88 15.28 56.576C16.944 54.208 19.472 52.416 22.864 51.2C26.256 49.92 30.64 49.28 36.016 49.28H48.304V58.784H38.512C35.568 58.784 33.488 59.264 32.272 60.224C31.12 61.184 30.544 62.464 30.544 64.064C30.544 65.664 31.152 66.944 32.368 67.904C33.584 68.864 35.248 69.344 37.36 69.344C39.344 69.344 41.136 68.864 42.736 67.904C44.4 66.88 45.616 65.344 46.384 63.296L48.88 70.016C47.92 73.6 46.032 76.32 43.216 78.176C40.464 79.968 36.816 80.864 32.272 80.864ZM69.4172 80V27.968H86.7933V43.136L84.2012 38.816C85.7372 34.912 88.2332 32 91.6892 30.08C95.1452 28.096 99.3372 27.104 104.265 27.104V43.52C103.433 43.392 102.697 43.328 102.057 43.328C101.481 43.264 100.841 43.232 100.137 43.232C96.4253 43.232 93.4172 44.256 91.1132 46.304C88.8092 48.288 87.6573 51.552 87.6573 56.096V80H69.4172ZM120.24 70.4L120.72 48.608L141.936 27.968H163.536L140.016 52.256L130.704 59.744L120.24 70.4ZM105.072 80V8.768H123.312V80H105.072ZM143.28 80L127.344 60.032L138.672 46.016L165.36 80H143.28ZM195.003 80V70.304L193.755 67.904V50.048C193.755 47.168 192.859 44.96 191.067 43.424C189.339 41.824 186.555 41.024 182.715 41.024C180.219 41.024 177.691 41.44 175.131 42.272C172.571 43.04 170.395 44.128 168.603 45.536L162.459 33.152C165.403 31.232 168.923 29.76 173.019 28.736C177.179 27.648 181.307 27.104 185.403 27.104C193.851 27.104 200.379 29.056 204.987 32.96C209.659 36.8 211.995 42.848 211.995 51.104V80H195.003ZM179.643 80.864C175.483 80.864 171.963 80.16 169.083 78.752C166.203 77.344 163.995 75.424 162.459 72.992C160.987 70.56 160.251 67.84 160.251 64.832C160.251 61.632 161.051 58.88 162.651 56.576C164.315 54.208 166.843 52.416 170.235 51.2C173.627 49.92 178.011 49.28 183.387 49.28H195.675V58.784H185.883C182.939 58.784 180.859 59.264 179.643 60.224C178.491 61.184 177.915 62.464 177.915 64.064C177.915 65.664 178.523 66.944 179.739 67.904C180.955 68.864 182.619 69.344 184.731 69.344C186.715 69.344 188.507 68.864 190.107 67.904C191.771 66.88 192.987 65.344 193.755 63.296L196.251 70.016C195.291 73.6 193.403 76.32 190.587 78.176C187.835 79.968 184.187 80.864 179.643 80.864ZM216.788 80V27.968H235.028V80H216.788ZM225.908 22.208C222.58 22.208 219.892 21.28 217.844 19.424C215.796 17.568 214.772 15.264 214.772 12.512C214.772 9.76 215.796 7.456 217.844 5.6C219.892 3.744 222.58 2.816 225.908 2.816C229.236 2.816 231.924 3.712 233.972 5.504C236.02 7.232 237.044 9.472 237.044 12.224C237.044 15.104 236.02 17.504 233.972 19.424C231.988 21.28 229.3 22.208 225.908 22.208ZM274.05 27.104C278.082 27.104 281.73 27.936 284.994 29.6C288.258 31.2 290.818 33.696 292.674 37.088C294.594 40.48 295.554 44.864 295.554 50.24V80H277.314V53.216C277.314 49.504 276.546 46.816 275.01 45.152C273.538 43.424 271.458 42.56 268.77 42.56C266.85 42.56 265.09 43.008 263.49 43.904C261.89 44.736 260.642 46.048 259.746 47.84C258.85 49.632 258.402 51.968 258.402 54.848V80H240.162V27.968H257.538V42.752L254.178 38.432C256.162 34.656 258.882 31.84 262.338 29.984C265.794 28.064 269.698 27.104 274.05 27.104ZM302.398 80V28.544C302.398 22.272 304.254 17.28 307.966 13.568C311.742 9.792 317.118 7.904 324.094 7.904C326.334 7.904 328.542 8.128 330.718 8.576C332.894 9.024 334.718 9.696 336.19 10.592L331.678 23.456C330.91 23.008 330.046 22.656 329.086 22.4C328.126 22.08 327.166 21.92 326.206 21.92C324.286 21.92 322.782 22.496 321.694 23.648C320.67 24.736 320.158 26.432 320.158 28.736V32.48L320.638 40.064V80H302.398ZM294.814 43.52V29.888H332.542V43.52H294.814ZM358.115 80.864C352.419 80.864 347.363 79.712 342.947 77.408C338.531 75.104 335.043 71.936 332.483 67.904C329.987 63.808 328.739 59.136 328.739 53.888C328.739 48.64 329.987 44 332.483 39.968C335.043 35.936 338.531 32.8 342.947 30.56C347.363 28.256 352.419 27.104 358.115 27.104C363.811 27.104 368.867 28.256 373.283 30.56C377.763 32.8 381.251 35.936 383.747 39.968C386.243 44 387.491 48.64 387.491 53.888C387.491 59.136 386.243 63.808 383.747 67.904C381.251 71.936 377.763 75.104 373.283 77.408C368.867 79.712 363.811 80.864 358.115 80.864ZM358.115 66.368C360.227 66.368 362.083 65.888 363.683 64.928C365.347 63.968 366.659 62.56 367.619 60.704C368.579 58.784 369.059 56.512 369.059 53.888C369.059 51.264 368.579 49.056 367.619 47.264C366.659 45.408 365.347 44 363.683 43.04C362.083 42.08 360.227 41.6 358.115 41.6C356.067 41.6 354.211 42.08 352.547 43.04C350.947 44 349.635 45.408 348.611 47.264C347.651 49.056 347.171 51.264 347.171 53.888C347.171 56.512 347.651 58.784 348.611 60.704C349.635 62.56 350.947 63.968 352.547 64.928C354.211 65.888 356.067 66.368 358.115 66.368ZM412.453 80.864C405.797 80.864 400.613 79.232 396.901 75.968C393.189 72.64 391.333 67.648 391.333 60.992V16.352H409.573V60.8C409.573 62.656 410.085 64.128 411.109 65.216C412.133 66.24 413.445 66.752 415.045 66.752C417.221 66.752 419.077 66.208 420.613 65.12L425.125 77.888C423.589 78.912 421.701 79.648 419.461 80.096C417.221 80.608 414.885 80.864 412.453 80.864ZM383.749 43.52V29.888H421.477V43.52H383.749ZM451.202 80.864C445.058 80.864 439.682 79.712 435.074 77.408C430.53 75.04 426.978 71.84 424.418 67.808C421.922 63.712 420.674 59.072 420.674 53.888C420.674 48.704 421.89 44.096 424.322 40.064C426.818 35.968 430.242 32.8 434.594 30.56C438.946 28.256 443.842 27.104 449.282 27.104C454.402 27.104 459.074 28.16 463.298 30.272C467.522 32.32 470.882 35.36 473.378 39.392C475.874 43.424 477.122 48.32 477.122 54.08C477.122 54.72 477.09 55.456 477.026 56.288C476.962 57.12 476.898 57.888 476.834 58.592H435.65V48.992H467.138L460.226 51.68C460.29 49.312 459.842 47.264 458.882 45.536C457.986 43.808 456.706 42.464 455.042 41.504C453.442 40.544 451.554 40.064 449.378 40.064C447.202 40.064 445.282 40.544 443.618 41.504C442.018 42.464 440.77 43.84 439.874 45.632C438.978 47.36 438.53 49.408 438.53 51.776V54.56C438.53 57.12 439.042 59.328 440.066 61.184C441.154 63.04 442.69 64.48 444.674 65.504C446.658 66.464 449.026 66.944 451.778 66.944C454.338 66.944 456.514 66.592 458.306 65.888C460.162 65.12 461.986 63.968 463.778 62.432L473.378 72.416C470.882 75.168 467.81 77.28 464.162 78.752C460.514 80.16 456.194 80.864 451.202 80.864ZM505.404 80.864C499.644 80.864 494.492 79.712 489.948 77.408C485.468 75.104 481.948 71.936 479.388 67.904C476.828 63.808 475.548 59.136 475.548 53.888C475.548 48.64 476.828 44 479.388 39.968C481.948 35.936 485.468 32.8 489.948 30.56C494.492 28.256 499.644 27.104 505.404 27.104C511.292 27.104 516.38 28.352 520.668 30.848C524.956 33.344 527.996 36.864 529.788 41.408L515.676 48.608C514.46 46.176 512.956 44.416 511.164 43.328C509.372 42.176 507.42 41.6 505.308 41.6C503.196 41.6 501.276 42.08 499.548 43.04C497.82 44 496.444 45.408 495.42 47.264C494.46 49.056 493.98 51.264 493.98 53.888C493.98 56.576 494.46 58.848 495.42 60.704C496.444 62.56 497.82 63.968 499.548 64.928C501.276 65.888 503.196 66.368 505.308 66.368C507.42 66.368 509.372 65.824 511.164 64.736C512.956 63.584 514.46 61.792 515.676 59.36L529.788 66.56C527.996 71.104 524.956 74.624 520.668 77.12C516.38 79.616 511.292 80.864 505.404 80.864ZM563.637 27.104C567.669 27.104 571.317 27.936 574.581 29.6C577.845 31.2 580.405 33.696 582.261 37.088C584.181 40.48 585.141 44.864 585.141 50.24V80H566.901V53.216C566.901 49.504 566.133 46.816 564.597 45.152C563.125 43.424 561.045 42.56 558.357 42.56C556.437 42.56 554.677 43.008 553.077 43.904C551.477 44.736 550.229 46.048 549.333 47.84C548.437 49.632 547.989 51.968 547.989 54.848V80H529.749V8.768H547.989V42.752L543.765 38.432C545.749 34.656 548.469 31.84 551.925 29.984C555.381 28.064 559.285 27.104 563.637 27.104Z" fill="#1E5EED"/>
<path d="M274.215 36.3681C276.305 35.0289 279.098 35.8972 280.06 38.1856L286.834 54.2935C288.152 57.428 285.206 60.6733 281.959 59.6637L260.472 52.9825C257.225 51.9728 256.638 47.6292 259.502 45.7948L274.215 36.3681Z" fill="white"/>
<rect x="258.16" y="47.099" width="30.4006" height="34.7651" transform="rotate(17.2741 258.16 47.099)" fill="white"/>
<circle cx="272.5" cy="54.5" r="5.5" fill="#1E5EED"/>
</g>
<defs>
<clipPath id="clip0_271_51">
<rect width="591" height="80" fill="white"/>
</clipPath>
</defs>
</svg>
