<?xml version="1.0" encoding="UTF-8"?>
<svg version="1.1" xmlns="http://www.w3.org/2000/svg" width="512" height="512">
<path d="M0 0 C1.01790619 0.00215515 2.03581238 0.0043103 3.08456421 0.00653076 C17.69363523 0.05620146 32.02575853 0.30709809 46.375 3.3125 C47.34985352 3.51117676 48.32470703 3.70985352 49.32910156 3.91455078 C97.7109774 14.03517194 141.69928269 35.9516877 177.375 70.3125 C178.3640332 71.26068604 178.3640332 71.26068604 179.37304688 72.22802734 C188.86130305 81.37247479 197.6012044 90.66984009 205.375 101.3125 C206.23306152 102.46355017 207.09113451 103.61459177 207.94921875 104.765625 C213.98736829 112.95680614 219.34595521 121.47054105 224.375 130.3125 C224.73948242 130.94430176 225.10396484 131.57610352 225.47949219 132.22705078 C247.08534998 169.97532572 256.85198095 212.74189997 256.6875 255.9375 C256.68534485 256.95540619 256.6831897 257.97331238 256.68096924 259.02206421 C256.63129854 273.63113523 256.38040191 287.96325853 253.375 302.3125 C253.07698486 303.77478027 253.07698486 303.77478027 252.77294922 305.26660156 C242.65232806 353.6484774 220.7358123 397.63678269 186.375 433.3125 C185.74287598 433.97185547 185.11075195 434.63121094 184.45947266 435.31054688 C175.31502521 444.79880305 166.01765991 453.5387044 155.375 461.3125 C154.22394983 462.17056152 153.07290823 463.02863451 151.921875 463.88671875 C143.73224019 469.92427396 135.22961724 475.30707302 126.375 480.3125 C125.66778809 480.7146875 124.96057617 481.116875 124.23193359 481.53125 C101.09654164 494.5566741 75.92537591 503.30551461 49.9375 508.625 C49.21860596 508.77235596 48.49971191 508.91971191 47.7590332 509.0715332 C33.08339502 511.86090125 18.55831162 512.66142619 3.64770508 512.62817383 C0.70811513 512.6250221 -2.2304558 512.64854926 -5.16992188 512.67382812 C-18.54306192 512.71848737 -31.43916711 511.51301542 -44.625 509.3125 C-46.33055054 509.03031616 -46.33055054 509.03031616 -48.07055664 508.74243164 C-91.33802759 500.97044532 -132.38793216 480.98345309 -165.625 452.3125 C-166.37007813 451.67828125 -167.11515625 451.0440625 -167.8828125 450.390625 C-181.38779833 438.57948485 -194.05918743 425.82889772 -204.625 411.3125 C-205.48149066 410.16255169 -206.33826433 409.01281411 -207.1953125 407.86328125 C-213.23534209 399.67315742 -218.61867614 391.16870382 -223.625 382.3125 C-224.0271875 381.60528809 -224.429375 380.89807617 -224.84375 380.16943359 C-237.8691741 357.03404164 -246.61801461 331.86287591 -251.9375 305.875 C-252.08485596 305.15610596 -252.23221191 304.43721191 -252.3840332 303.6965332 C-255.35789088 288.05024391 -255.99800362 272.57681954 -255.9375 256.6875 C-255.93534485 255.66959381 -255.9331897 254.65168762 -255.93096924 253.60293579 C-255.88129854 238.99386477 -255.63040191 224.66174147 -252.625 210.3125 C-252.42632324 209.33764648 -252.22764648 208.36279297 -252.02294922 207.35839844 C-241.90232806 158.9765226 -219.9858123 114.98821731 -185.625 79.3125 C-184.99287598 78.65314453 -184.36075195 77.99378906 -183.70947266 77.31445312 C-174.56502521 67.82619695 -165.26765991 59.0862956 -154.625 51.3125 C-153.47394983 50.45443848 -152.32290823 49.59636549 -151.171875 48.73828125 C-142.98224019 42.70072604 -134.47961724 37.31792698 -125.625 32.3125 C-124.91778809 31.9103125 -124.21057617 31.508125 -123.48193359 31.09375 C-100.34654164 18.0683259 -75.17537591 9.31948539 -49.1875 4 C-48.46860596 3.85264404 -47.74971191 3.70528809 -47.0090332 3.5534668 C-31.36274391 0.57960912 -15.88931954 -0.06050362 0 0 Z " fill="#FEFEFE" transform="translate(255.625,-0.3125)"/>
<path d="M0 0 C3.94675462 2.70873961 6.96641699 5.61174193 9 10 C9.36248888 11.99492178 9.69936162 13.99482478 10 16 C11.16402344 16.03867188 11.16402344 16.03867188 12.3515625 16.078125 C36.27393137 17.3341921 60.368458 28.72089481 80 42 C82.82907671 44.34560055 82.82907671 44.34560055 86.0625 43.6875 C88.9131423 43.1399374 88.9131423 43.1399374 91 42 C100.00582593 41.28937337 105.72017974 42.06286845 113.1875 47.1875 C118.39422364 52.39422364 120.22955608 56.78804059 120.375 64.1875 C120.33318011 67.37835729 120.16758096 69.6063656 118.9140625 72.55078125 C117.79005027 75.56255761 117.99791243 76.96964866 119 80 C120.30385372 82.17681579 120.30385372 82.17681579 122 84.3125 C135.73425932 103.38317909 149.03860042 129.94990903 148 154 C148.825 154.04125 149.65 154.0825 150.5 154.125 C156.34860481 155.5871512 161.01893712 159.2150449 164.4375 164.1875 C167.64313169 169.95763705 167.70716657 175.53103306 167 182 C164.88709373 188.09282024 161.37587284 192.52149405 156 196 C153.3246439 196.91920011 150.79311657 197.47027099 148 198 C148.03996094 198.95648438 148.07992188 199.91296875 148.12109375 200.8984375 C148.06817796 224.35776924 134.17641123 252.81915254 119.37109375 270.53515625 C117.56089564 273.78938703 118.04687166 275.47007242 119 279 C119.33 279.99 119.66 280.98 120 282 C120.86347257 290.2153247 120.15581789 296.39622276 115 303 C110.98619826 307.39043194 106.65256863 309.6503524 100.71484375 310.21875 C96.00711432 310.39337984 92.98274039 310.08601425 88.8125 307.875 C86.56440313 306.90104983 86.56440313 306.90104983 84 307 C80.88617131 308.65121447 78.17893492 310.51000076 75.33959961 312.58081055 C57.72959802 325.32858921 32.02685172 336.35400297 10 336 C9.84144531 336.58007812 9.68289063 337.16015625 9.51953125 337.7578125 C7.65562619 343.9982902 5.53470745 348.56988863 0 352.375 C-2.4726545 353.14770453 -4.42497283 353.27105549 -7 353 C-9 351 -9 351 -9.5 348.1875 C-8.79929065 343.72047791 -6.51177548 342.66894936 -3 340 C-0.5823676 336.2479601 -0.86096464 333.41111312 -1.453125 329.125 C-2.2207552 326.14220836 -3.50923137 324.75818962 -6 323 C-9.65288193 321.78237269 -12.15754136 321.60924149 -16 322 C-19.52162972 324.02167632 -21.45178332 325.17828618 -22.62890625 329.08984375 C-23.14428277 332.9062395 -22.99129599 336.05396486 -22.375 339.875 C-22 343 -22 343 -23.125 344.9375 C-25.66360013 346.37604008 -27.12786504 346.50262362 -30 346 C-33.11081018 343.11139055 -33.53256152 340.11345859 -34 336 C-35.134375 336.04382813 -36.26875 336.08765625 -37.4375 336.1328125 C-42.19574035 336.12654065 -46.4346169 335.14195295 -51 333.875 C-52.24547607 333.5339624 -52.24547607 333.5339624 -53.51611328 333.18603516 C-71.16880646 328.22870266 -89.31525088 321.15930888 -103.75 309.625 C-106.67050886 307.35660068 -106.67050886 307.35660068 -110.19921875 307.24609375 C-112.45662927 308.03656708 -112.45662927 308.03656708 -114.6484375 309.0703125 C-119.62641916 311.03835176 -125.21184494 310.83786663 -130.30078125 309.30859375 C-136.25545718 306.62842888 -139.15333381 302.67448206 -142.8125 297.375 C-144.78128309 291.77951122 -145.26450012 284.99006346 -142.91796875 279.44140625 C-141.76082542 276.3638974 -141.92191135 275.09892148 -143 272 C-144.42574047 269.76489978 -145.88403769 267.64132976 -147.4375 265.5 C-157.79160911 250.63270635 -165.66956471 232.95589158 -169.75 215.3125 C-169.97042969 214.41466797 -170.19085938 213.51683594 -170.41796875 212.59179688 C-171.59580813 207.59878212 -172.25255466 203.12826272 -172 198 C-172.825 197.95875 -173.65 197.9175 -174.5 197.875 C-179.84550737 196.53862316 -184.10898121 193.61166493 -187.36328125 189.1171875 C-188.32016516 187.45394928 -189.16857265 185.72936889 -190 184 C-190.33 183.34 -190.66 182.68 -191 182 C-191.69417225 174.60308259 -191.64134675 168.06216718 -187 162 C-183.75926117 158.63143621 -180.35126766 155.790714 -176 154 C-174.68 154 -173.36 154 -172 154 C-171.97873047 152.90558594 -171.97873047 152.90558594 -171.95703125 151.7890625 C-171.63738673 144.79143921 -170.54822181 138.426406 -168.6875 131.6875 C-168.48680908 130.94773926 -168.28611816 130.20797852 -168.0793457 129.44580078 C-166.38801268 123.58347408 -164.3849904 117.3849904 -160 113 C-156.70285207 113.32971479 -155.3773161 113.6226839 -153 116 C-153.34064541 121.49143901 -154.59462933 126.36410702 -156.375 131.5625 C-158.91426242 139.28229888 -160.58616217 146.99974689 -162 155 C-160.63101563 155.37898438 -160.63101563 155.37898438 -159.234375 155.765625 C-155.88581735 157.04357695 -154.52634277 158.05597966 -152.25 160.75 C-151.67765625 161.40484375 -151.1053125 162.0596875 -150.515625 162.734375 C-149 165 -149 165 -147 171 C-135.45 171 -123.9 171 -112 171 C-111.505 168.03 -111.505 168.03 -111 165 C-107.9496351 160.02867746 -103.56851473 155.94727846 -97.8515625 154.4296875 C-97.24054688 154.28789062 -96.62953125 154.14609375 -96 154 C-95.88406494 153.05680908 -95.76812988 152.11361816 -95.64868164 151.1418457 C-95.21593731 147.62863644 -94.7815072 144.11564406 -94.34594727 140.6027832 C-94.15810058 139.0849626 -93.97091802 137.56705964 -93.78442383 136.04907227 C-93.51559976 133.86191961 -93.24435582 131.67507833 -92.97265625 129.48828125 C-92.89032242 128.81412674 -92.80798859 128.13997223 -92.72315979 127.44538879 C-92.28364092 123.92799305 -91.74898181 120.46513376 -91 117 C-91.556875 116.79375 -92.11375 116.5875 -92.6875 116.375 C-96.98610101 113.81907507 -100.16231706 109.63162623 -102 105 C-102.23046875 102.16015625 -102.23046875 102.16015625 -102.1875 99.0625 C-102.18105469 98.04285156 -102.17460937 97.02320313 -102.16796875 95.97265625 C-102.01221966 93.21625952 -101.61837386 90.68621605 -101 88 C-103.21743356 86.09569106 -105.40372331 84.35738947 -108 83 C-110.82632926 83.46287521 -110.82632926 83.46287521 -113 85 C-115.67421261 86.3371063 -117.76452194 86.13242656 -120.75 86.125 C-122.28914063 86.12886719 -122.28914063 86.12886719 -123.859375 86.1328125 C-126.98286529 86.0007246 -129.93071468 85.57893705 -133 85 C-133.69867188 86.05960937 -134.39734375 87.11921875 -135.1171875 88.2109375 C-136.03633601 89.59903934 -136.95561356 90.98705574 -137.875 92.375 C-138.33519531 93.07367188 -138.79539063 93.77234375 -139.26953125 94.4921875 C-139.71425781 95.1625 -140.15898437 95.8328125 -140.6171875 96.5234375 C-141.02565918 97.14138184 -141.43413086 97.75932617 -141.85498047 98.39599609 C-143 100 -143 100 -145 102 C-150.56818182 101.43181818 -150.56818182 101.43181818 -152 100 C-152.90913824 92.58630567 -149.7247947 89.07615961 -145.46679688 83.51757812 C-142.53173985 79.53223558 -142.53173985 79.53223558 -142.12890625 74.66015625 C-142.90734095 72.06309998 -142.90734095 72.06309998 -144 70 C-144.69554784 62.58842467 -144.62844909 56.08077768 -140 50 C-135.39218061 45.00168744 -131.01041682 42.2482896 -124.09765625 41.8203125 C-115.67173252 41.63647416 -115.67173252 41.63647416 -113.0078125 43.078125 C-110.03467204 44.44322451 -108.10761581 43.83805381 -105 43 C-102.70003517 41.68277675 -102.70003517 41.68277675 -100.5625 39.9375 C-82.94846168 27.13204188 -56.19494186 14.41464701 -34 16 C-33.79375 14.824375 -33.5875 13.64875 -33.375 12.4375 C-31.88309242 6.4698697 -28.30028931 2.64306379 -23.375 -0.875 C-15.78711989 -4.469259 -7.28338911 -4.06189008 0 0 Z " fill="#326DFA" transform="translate(268,81)"/>
<path d="M0 0 C0.70125 0.474375 1.4025 0.94875 2.125 1.4375 C4.79921261 2.7746063 6.88952194 2.56992656 9.875 2.5625 C11.41414063 2.56636719 11.41414063 2.56636719 12.984375 2.5703125 C16.10786529 2.4382246 19.05571468 2.01643705 22.125 1.4375 C34.56064172 18.30333908 44.17180053 37.02510428 49.125 57.4375 C49.34929687 58.31277344 49.57359375 59.18804687 49.8046875 60.08984375 C50.31732981 62.20010421 50.74520214 64.30003298 51.125 66.4375 C51.33125 67.51 51.5375 68.5825 51.75 69.6875 C51.125 72.4375 51.125 72.4375 49.4765625 73.73828125 C48.05271207 74.59312082 46.61300208 75.42198826 45.16015625 76.2265625 C41.26705532 78.54299492 39.46352816 81.51100188 37.9375 85.6875 C36.125 88.4375 36.125 88.4375 33.97265625 89.00390625 C32.34810817 89.16559113 30.71756995 89.27658743 29.0859375 89.33203125 C27.12107064 89.21872619 27.12107064 89.21872619 26.125 90.4375 C25.95833333 93.4375 25.95833333 93.4375 26.125 96.4375 C26.455 96.7675 26.785 97.0975 27.125 97.4375 C27.74890625 97.4375 28.3728125 97.4375 29.015625 97.4375 C31.62307327 97.4375 33.64610847 97.60411623 36.125 98.4375 C37.80500314 100.56053269 38.81349143 102.68965037 39.9453125 105.14453125 C42.29299815 109.70774807 46.44499843 112.45749933 51.125 114.4375 C48.36585819 140.5455085 37.4351237 164.42152001 22.125 185.4375 C21.3515625 185.19580078 21.3515625 185.19580078 20.5625 184.94921875 C17.38644243 184.28245025 14.36906253 184.26718253 11.125 184.25 C9.908125 184.23582031 8.69125 184.22164062 7.4375 184.20703125 C4.29179104 184.42589543 2.79524023 184.92031805 0.125 186.4375 C-3.71547085 186.14946469 -6.08523421 185.07615347 -8.875 182.4375 C-9.34375 180.01953125 -9.34375 180.01953125 -9.375 177.25 C-9.70017551 171.89167315 -10.59104827 167.76766644 -13.875 163.4375 C-15.12506808 162.4927117 -16.39695409 161.57619928 -17.6875 160.6875 C-19.515625 159.2421875 -19.515625 159.2421875 -20.875 157.4375 C-21.34288874 153.31269138 -20.63114212 149.49678925 -19.875 145.4375 C-19.64296875 144.0453125 -19.64296875 144.0453125 -19.40625 142.625 C-19.08528155 140.69918931 -18.74031297 138.77726812 -18.375 136.859375 C-17.97817212 134.14358421 -17.77785434 131.62158493 -17.6875 128.890625 C-17.14133721 116.60071529 -17.14133721 116.60071529 -13.4765625 113.234375 C-10.5625 111.8125 -10.5625 111.8125 -7.58203125 110.66015625 C-3.35947852 108.7530004 -1.6868474 105.56253122 0.125 101.4375 C0.62 99.9525 0.62 99.9525 1.125 98.4375 C2.23875 98.31375 3.3525 98.19 4.5 98.0625 C8.15603677 97.7909187 8.15603677 97.7909187 10.125 95.4375 C9.83516731 92.13066534 9.83516731 92.13066534 8.125 89.4375 C7.01125 89.39625 5.8975 89.355 4.75 89.3125 C3.55375 89.02375 2.3575 88.735 1.125 88.4375 C-0.5625 85.1875 -0.5625 85.1875 -1.875 81.4375 C-5.60549096 75.96611326 -9.84544514 73.80301818 -15.875 71.4375 C-16.44864989 66.97226109 -17.01818699 62.50652227 -17.58398438 58.0402832 C-17.77687545 56.52223691 -17.97087291 55.00433076 -18.16601562 53.48657227 C-18.44695119 51.30000488 -18.72385234 49.11295784 -19 46.92578125 C-19.08749512 46.25162674 -19.17499023 45.57747223 -19.26513672 44.88288879 C-20.1914055 37.47710667 -20.1914055 37.47710667 -19.875 34.4375 C-18.42845821 33.22108986 -16.9756854 32.01036036 -15.4765625 30.859375 C-11.64682022 27.45931112 -10.05707126 23.43515507 -9.59765625 18.39453125 C-9.54861162 13.92057077 -9.61125868 9.75271427 -10.875 5.4375 C-3.83145623 -0.74963274 -3.83145623 -0.74963274 0 0 Z " fill="#FDFEFE" transform="translate(354.875,163.5625)"/>
<path d="M0 0 C11.55 0 23.1 0 35 0 C37.475 4.95 37.475 4.95 40 10 C43.95155386 13.38704616 47.20210522 15.10599076 52 17 C52.08040527 17.66418945 52.16081055 18.32837891 52.24365234 19.01269531 C54.09607747 34.87616849 54.09607747 34.87616849 56.66796875 50.6328125 C57.07221512 53.51485135 57.25951258 56.0942455 57 59 C55.57421875 60.72265625 55.57421875 60.72265625 53.6875 62.0625 C50.51073051 64.36016346 48.70493101 66.43330457 47 70 C46.6666227 72.322887 46.42149579 74.65958687 46.25 77 C45.26515452 84.74039708 45.26515452 84.74039708 41.8125 87.5625 C39.90234375 88.578125 39.90234375 88.578125 38 89 C34.875 87.8125 34.875 87.8125 33.16015625 86.84765625 C27.53697448 84.64109125 19.73794135 85.26884494 14 87 C3.59658576 72.16234362 -4.01012458 57.08710544 -10 40 C-10.47759766 38.70449219 -10.47759766 38.70449219 -10.96484375 37.3828125 C-13.43061716 30.48846097 -15 23.33380745 -15 16 C-13.390625 14.69140625 -13.390625 14.69140625 -11.25 13.5625 C-5.21276011 10.07005788 -3.15314897 6.30629794 0 0 Z " fill="#FDFDFE" transform="translate(121,262)"/>
<path d="M0 0 C11.55 0 23.1 0 35 0 C37.475 4.455 37.475 4.455 40 9 C43.15482218 12.02605393 46.0915278 14.12561441 50 16 C50.7872171 28.22373215 50.54770932 45.90458136 45 57 C43.04489498 57.46392322 41.08912059 57.92535028 39.12890625 58.3671875 C35.98844065 59.3006837 33.63015847 61.08715748 31 63 C28.75678034 64.38807121 27.58089612 65.0605956 24.92871094 64.78393555 C24.20458008 64.570354 23.48044922 64.35677246 22.734375 64.13671875 C21.92613281 63.90919922 21.11789062 63.68167969 20.28515625 63.44726562 C19.44855469 63.19654297 18.61195313 62.94582031 17.75 62.6875 C11.81041439 60.95784045 6.16654763 59.60386699 0 59 C-0.20753906 58.34773438 -0.41507812 57.69546875 -0.62890625 57.0234375 C-3.87570851 47.81284363 -8.34584584 44.18080968 -17 40 C-18.64511261 19.09947704 -18.64511261 19.09947704 -14.94921875 14.3828125 C-12.3125 13 -12.3125 13 -9.55078125 11.9765625 C-4.29893443 9.96590139 -2.40700601 4.81401203 0 0 Z " fill="#FDFDFE" transform="translate(278,262)"/>
<path d="M0 0 C4.87429768 -0.24810442 9.74489484 -0.42902231 14.62402344 -0.54931641 C16.28125016 -0.59946677 17.9380373 -0.6676137 19.59375 -0.75439453 C24.87857246 -1.02435241 29.80827917 -1.12257066 35 0 C37.55792819 2.37824567 38.67661452 4.31419527 39.96191406 7.54150391 C42.1312592 12.67915807 47.2085795 14.60428975 52 17 C52 24.92 52 32.84 52 41 C49.36 41.99 46.72 42.98 44 44 C41.99598115 45.46746387 41.99598115 45.46746387 40.6875 47.25 C40.2028125 47.85714844 39.718125 48.46429688 39.21875 49.08984375 C38.00776713 50.98782651 37.36518574 52.67689823 36.6875 54.8125 C35 58 35 58 33.22021484 58.64331055 C32.49527832 58.76488525 31.7703418 58.88645996 31.0234375 59.01171875 C27.60602837 59.6585502 24.34637548 60.45786113 21.02734375 61.5 C20.19009766 61.74621094 19.35285156 61.99242187 18.49023438 62.24609375 C16.7761063 62.75233203 15.07006372 63.28672303 13.37304688 63.84765625 C7.15727574 65.60168264 7.15727574 65.60168264 3.75634766 63.83349609 C1.66015625 62.2109375 1.66015625 62.2109375 -0.15991211 60.51708984 C-3.15786513 58.0453796 -6.22860444 57.67346349 -10 57 C-12.55082685 47.46212568 -13.82535157 37.79066572 -15 28 C-15.15597656 26.72640625 -15.31195313 25.4528125 -15.47265625 24.140625 C-15.67461822 21.18830827 -15.7885432 18.85164995 -15 16 C-13.14022927 14.14022927 -11.40127417 13.13506892 -9.03515625 12 C-4.15549827 9.60231777 -2.28347257 4.65009681 0 0 Z " fill="#FDFDFE" transform="translate(199,262)"/>
<path d="M0 0 C1.9609481 0.46349682 3.9218899 0.9270203 5.8828125 1.390625 C8.35803316 1.87450272 10.74099737 2.21272256 13.2421875 2.484375 C24.98622109 3.88956844 24.98622109 3.88956844 27.84375 7.01953125 C28.79502556 9.33251175 29.42462485 11.56968408 30 14 C33.52205946 19.73965246 36.29833889 20.27685494 43 24 C43 31.92 43 39.84 43 48 C40.36 48.99 37.72 49.98 35 51 C32.96210974 52.50131877 32.96210974 52.50131877 31.625 54.3125 C31.16351563 54.86550781 30.70203125 55.41851562 30.2265625 55.98828125 C28.57544295 58.52745827 28.57544295 58.52745827 27 64 C15.12 64 3.24 64 -9 64 C-10.32 61.36 -11.64 58.72 -13 56 C-14.6688656 53.98075616 -14.6688656 53.98075616 -16.5 52.625 C-17.0671875 52.16351563 -17.634375 51.70203125 -18.21875 51.2265625 C-20.07559016 49.94794888 -21.96113282 48.95683679 -24 48 C-24.47063694 36.33866258 -23.07247015 25.46026646 -21 14 C-19.93007812 13.70609375 -18.86015625 13.4121875 -17.7578125 13.109375 C-10.32663316 10.9155549 -5.54904395 8.34109156 -1 2 C-0.67 1.34 -0.34 0.68 0 0 Z " fill="#FCFDFE" transform="translate(208,188)"/>
<path d="M0 0 C1.3440093 1.99284138 2.67541292 3.99419671 4 6 C8.81853319 11.04798715 13.16536593 12.09501881 20 13 C23.47840466 23.68367146 26.03393471 36.79961632 24 48 C22.19581271 50.03194361 20.65394778 50.81611065 18.17578125 51.89453125 C13.5524853 54.24353081 10.60135898 59.19592307 9 64 C-2.55 64 -14.1 64 -26 64 C-27.65 61.03 -29.3 58.06 -31 55 C-34.69806883 51.38061349 -38.38186376 49.24804963 -43 47 C-44.64511261 26.09947704 -44.64511261 26.09947704 -40.94921875 21.3828125 C-38.3125 20 -38.3125 20 -35.55078125 18.96875 C-31.61563443 17.47423789 -29.81332141 14.68708686 -28 11 C-27.30442087 9.00987083 -26.63267749 7.0110106 -26 5 C-25.06148193 4.82609741 -25.06148193 4.82609741 -24.10400391 4.64868164 C-21.27708033 4.12306613 -18.45104062 3.59284139 -15.625 3.0625 C-14.64015625 2.88009766 -13.6553125 2.69769531 -12.640625 2.50976562 C-11.69960938 2.33251953 -10.75859375 2.15527344 -9.7890625 1.97265625 C-8.91975098 1.81031494 -8.05043945 1.64797363 -7.15478516 1.48071289 C-0.51752158 0 -0.51752158 0 0 0 Z " fill="#FCFDFE" transform="translate(304,188)"/>
<path d="M0 0 C1.43067272 1.62203658 2.69111947 3.33943328 3.9765625 5.078125 C6.66485931 7.81861228 6.66485931 7.81861228 14 11 C14 26.18 14 41.36 14 57 C11.03 58.65 8.06 60.3 5 62 C1.97394607 65.15482218 -0.12561441 68.0915278 -2 72 C-10.14369435 71.67359942 -18.74040444 70.94386539 -26 67 C-27.67181112 64.51993414 -28.43646503 62.35138512 -29.2421875 59.48046875 C-30.37350214 55.77745432 -32.32107745 53.74942052 -35 51 C-35.66 50.67 -36.32 50.34 -37 50 C-36.36620519 45.42259302 -34.56070295 41.58264506 -32.5 37.5 C-32.14615234 36.7980249 -31.79230469 36.0960498 -31.42773438 35.37280273 C-26.22274705 25.30124341 -12.82955943 0 0 0 Z " fill="#FCFDFE" transform="translate(237,111)"/>
<path d="M0 0 C17.87640167 8.4171398 30.18346914 29.0700492 37 47 C37 47.99 37 48.98 37 50 C35.51893135 51.21776755 34.03492781 52.43240379 32.52734375 53.6171875 C29.35673663 56.48776275 28.17852708 60.0895119 27.375 64.1875 C25.78036105 67.44926149 25.28559403 67.60292419 22 68.75 C20.34251201 69.20179914 18.6746898 69.61685127 17 70 C16.12859375 70.20496094 15.2571875 70.40992188 14.359375 70.62109375 C5.85850496 72.46634249 5.85850496 72.46634249 2 72 C0.59375 70.390625 0.59375 70.390625 -0.5 68.25 C-3.93728821 62.1785283 -7.69110404 60.15444798 -14 57 C-14 41.82 -14 26.64 -14 11 C-11.03 9.35 -8.06 7.7 -5 6 C-2.00234829 2.8919545 -2.00234829 2.8919545 0 0 Z " fill="#FCFDFE" transform="translate(275,111)"/>
<path d="M0 0 C2.5 0.5625 2.5 0.5625 3.75 2.20703125 C4.59914862 3.63731595 5.43333274 5.07656956 6.25390625 6.5234375 C9.34675444 11.58446181 12.94336043 12.71028681 18.5 14.5625 C18.5 30.0725 18.5 45.5825 18.5 61.5625 C15.53 63.2125 12.56 64.8625 9.5 66.5625 C8.571875 67.51125 7.64375 68.46 6.6875 69.4375 C5.965625 70.13875 5.24375 70.84 4.5 71.5625 C-2.73467933 70.83903207 -8.67667849 63.62764171 -13.0625 58.4375 C-17.75598456 52.46620813 -21.73333187 46.15009274 -25.5 39.5625 C-26.05429688 38.6034375 -26.60859375 37.644375 -27.1796875 36.65625 C-29.87984113 31.6938055 -29.87984113 31.6938055 -30.5 29.5625 C-29.48905555 26.68267445 -27.73165583 24.5046942 -25.9375 22.0625 C-22.62746496 16.9222103 -22.609508 11.53566345 -22.5 5.5625 C-20.10468067 4.91470924 -17.70878252 4.26920991 -15.3125 3.625 C-14.63896484 3.44259766 -13.96542969 3.26019531 -13.27148438 3.07226562 C-8.86917894 1.89115929 -4.44090615 0.99920388 0 0 Z " fill="#FCFDFE" transform="translate(232.5,330.4375)"/>
<path d="M0 0 C8.59868438 0.61419174 16.69484752 2.80907021 25 5 C25.02578125 5.70125 25.0515625 6.4025 25.078125 7.125 C25.55710865 15.13709015 27.01098209 21.38743465 33 27 C29.55337975 38.19315022 23.1180669 47.81343503 16 57 C15.21625 58.051875 14.4325 59.10375 13.625 60.1875 C9.84758206 64.2347335 5.76324963 68.14205022 1 71 C-2.31859089 70.84550322 -4.01800386 69.34920763 -6.375 67.125 C-9.54891298 64.13159392 -11.74903727 63.12548136 -16 61 C-16 45.82 -16 30.64 -16 15 C-13.03 13.35 -10.06 11.7 -7 10 C-3.97394607 6.84517782 -1.87438559 3.9084722 0 0 Z " fill="#FCFDFE" transform="translate(277,331)"/>
<path d="M0 0 C19.09928526 2.66288112 38.61766313 12.63647186 54 24 C53.83757812 24.52722656 53.67515625 25.05445313 53.5078125 25.59765625 C52.87581455 28.58749272 52.86793611 31.38236962 52.875 34.4375 C52.87242187 35.54996094 52.86984375 36.66242188 52.8671875 37.80859375 C52.98600777 40.66377492 53.34646731 43.22507946 54 46 C51.44449064 47.93284718 48.9146553 49.65436534 46 51 C43.125 50.4375 43.125 50.4375 40 49 C38.36676181 48.81500815 36.73253106 48.63867155 35.09765625 48.46875 C32.07960516 47.88483226 30.49997833 47.57105368 28.45605469 45.23657227 C27.22400427 42.88885489 26.24595995 40.54392998 25.3125 38.0625 C24.57557128 36.32328323 23.83339392 34.58628087 23.0859375 32.8515625 C22.55758301 31.59327637 22.55758301 31.59327637 22.01855469 30.30957031 C16.98052191 18.88584306 8.11181006 9.32858157 0 0 Z " fill="#FAFBFE" transform="translate(292,110)"/>
<path d="M0 0 C-0.81791016 0.74830078 -0.81791016 0.74830078 -1.65234375 1.51171875 C-13.35251444 12.65188127 -23.99113193 28.43121283 -28.953125 43.98828125 C-30 46 -30 46 -32.42578125 46.85546875 C-33.37839844 46.96503906 -34.33101562 47.07460937 -35.3125 47.1875 C-38.39180556 47.56978759 -40.75904208 47.88825667 -43.5859375 49.19921875 C-46 50 -46 50 -48.23828125 49.1015625 C-48.92277344 48.61429688 -49.60726562 48.12703125 -50.3125 47.625 C-51.00988281 47.14289063 -51.70726562 46.66078125 -52.42578125 46.1640625 C-53.20501953 45.58785156 -53.20501953 45.58785156 -54 45 C-53.83757812 44.31035156 -53.67515625 43.62070313 -53.5078125 42.91015625 C-52.94767599 39.70014319 -52.86745088 36.6949472 -52.875 33.4375 C-52.87242187 32.32246094 -52.86984375 31.20742187 -52.8671875 30.05859375 C-52.97897772 27.48413065 -53.33159946 25.45887766 -54 23 C-11.03940887 -4.33399015 -11.03940887 -4.33399015 0 0 Z " fill="#FAFBFE" transform="translate(220,111)"/>
<path d="M0 0 C2.171733 0.83528192 3.67795349 1.88314912 5.53125 3.28125 C9.26939688 5.81286813 11.57871892 5.84673472 16.03125 5.59375 C19.140625 5.71875 19.140625 5.71875 22.03125 6.78125 C25.12698994 11.13663585 27.04357431 15.79327115 29.10009766 20.70263672 C32.84458591 29.0614655 38.92299251 36.11761096 45.1484375 42.72265625 C47.03125 44.78125 47.03125 44.78125 49.03125 47.78125 C43.39608907 47.18335494 38.45859088 45.75486265 33.15625 43.78125 C32.33125 43.47437256 31.50625 43.16749512 30.65625 42.85131836 C17.73022705 37.89164881 5.88869668 31.38747663 -4.96875 22.78125 C-4.80632812 22.2553125 -4.64390625 21.729375 -4.4765625 21.1875 C-3.84123197 18.17701074 -3.83669538 15.35706625 -3.84375 12.28125 C-3.84117187 11.1571875 -3.83859375 10.033125 -3.8359375 8.875 C-3.94608633 6.3091801 -4.21604338 4.21858573 -4.96875 1.78125 C-1.96875 -0.21875 -1.96875 -0.21875 0 0 Z " fill="#F9FBFE" transform="translate(170.96875,356.21875)"/>
<path d="M0 0 C1.875 0.7421875 1.875 0.7421875 3.875 1.7421875 C3.71257812 2.268125 3.55015625 2.7940625 3.3828125 3.3359375 C2.74748197 6.34642676 2.74294538 9.16637125 2.75 12.2421875 C2.74742187 13.36625 2.74484375 14.4903125 2.7421875 15.6484375 C2.85233633 18.2142574 3.12229338 20.30485177 3.875 22.7421875 C-12.02650474 35.17246979 -30.28722961 43.79814485 -50.125 47.7421875 C-49.3 46.7934375 -48.475 45.8446875 -47.625 44.8671875 C-46.45664692 43.49362018 -45.29013398 42.11848649 -44.125 40.7421875 C-43.51011719 40.02804687 -42.89523437 39.31390625 -42.26171875 38.578125 C-34.28872169 29.02331088 -27.78324836 18.28654214 -23.125 6.7421875 C-22.36316406 6.73960937 -21.60132813 6.73703125 -20.81640625 6.734375 C-13.77544098 6.47066844 -9.54079462 5.42486717 -4.0625 0.921875 C-2.125 -0.2578125 -2.125 -0.2578125 0 0 Z " fill="#FAFBFE" transform="translate(342.125,356.2578125)"/>
<path d="M0 0 C4.54447291 1.9023375 6.71481238 4.68353449 9 9 C9.66067786 12.96406718 9.20144076 14.61950078 7.3125 18.1875 C4.89150168 21.13195741 3.55935872 22.65535337 0 24 C-4.10332726 24.38753646 -7.49579268 24.06522437 -10.9140625 21.64453125 C-13.72425109 18.73445444 -15.39259183 16.07445314 -15.75 12 C-15.39286115 7.17862548 -12.48736926 4.11694921 -9 1 C-5.93570224 -0.53214888 -3.3834358 -0.22938548 0 0 Z " fill="#F8FAFE" transform="translate(369,357)"/>
<path d="M0 0 C3.32111098 2.08046607 6.23180362 4.46360725 8 8 C8.46581276 12.65812761 8.75049885 15.63818242 5.75 19.375 C2.37871394 22.59304578 0.70772777 23.7772529 -3.875 24.375 C-8.84247847 23.77890258 -11.81305828 21.50345952 -14.875 17.625 C-16.25784626 14.39835874 -16.49759088 12.48313618 -16 9 C-12.27895965 2.2223908 -8.15992562 -1.92622779 0 0 Z " fill="#F8FAFE" transform="translate(150,357)"/>
<path d="M0 0 C3.79259576 2.04216695 7.00344184 4.11780358 9 8 C9.5494224 12.23840134 9.29119754 14.43917511 7.3125 18.25 C3.97520532 22.21867475 1.71950578 23.74989007 -3.4375 24.5 C-8.22112622 23.82861386 -9.64370524 22.43434812 -13 19 C-15.55550471 15.51522085 -15.57216273 12.21970013 -15 8 C-10.93468377 1.70250093 -7.64234618 -0.63686218 0 0 Z " fill="#F8FAFE" transform="translate(259,312)"/>
<path d="M0 0 C4.34426379 2.25567543 7.05791513 4.46846864 9 9 C9.58496307 12.92760919 9.18285914 14.65459941 7.3125 18.1875 C4.02118516 22.19045048 1.74985643 23.70835726 -3.375 24.5625 C-8.2143014 23.81157392 -10.74360418 21.55075928 -14 18 C-15.63125565 14.7374887 -15.68851113 11.5120384 -15 8 C-11.05980489 1.64719312 -7.56486225 -0.63040519 0 0 Z " fill="#F8FAFE" transform="translate(416,245)"/>
<path d="M0 0 C4.09206332 1.808121 6.69807584 4.16345973 9 8 C9.9156837 14.40978593 9.9156837 14.40978593 7.9765625 17.77734375 C4.99574712 21.47174827 2.47208021 23.83334941 -2.3125 24.375 C-6.70210995 23.92859899 -8.64298617 22.82294345 -12 20 C-14.1633006 17.25981924 -14.92352448 15.51347849 -15.4375 12.0625 C-14.76566218 7.35963526 -12.43211386 4.4814971 -9.1875 1.125 C-5.96860302 -0.53043273 -3.56753756 -0.37553027 0 0 Z " fill="#F8FAFE" transform="translate(102,245)"/>
<path d="M0 0 C4.34426379 2.25567543 7.05791513 4.46846864 9 9 C9.58496307 12.92760919 9.18285914 14.65459941 7.3125 18.1875 C4.02118516 22.19045048 1.74985643 23.70835726 -3.375 24.5625 C-8.2143014 23.81157392 -10.74360418 21.55075928 -14 18 C-15.63125565 14.7374887 -15.68851113 11.5120384 -15 8 C-11.05980489 1.64719312 -7.56486225 -0.63040519 0 0 Z " fill="#F8FAFE" transform="translate(369,133)"/>
<path d="M0 0 C4.08998175 1.80720124 6.66247347 4.19069751 9 8 C9.62214724 12.2772623 9.30952891 14.40387025 7.3125 18.25 C4.18596768 21.96803843 1.90125656 23.71683413 -2.9375 24.4375 C-7.82797655 23.73886049 -10.79929923 21.48086428 -13.875 17.6875 C-15.3877643 14.07367417 -15.60395126 11.89213031 -15 8 C-10.88287841 1.65434471 -7.68558393 -0.52105654 0 0 Z " fill="#F8FAFE" transform="translate(259,245)"/>
<path d="M0 0 C4.08998175 1.80720124 6.66247347 4.19069751 9 8 C9.62214724 12.2772623 9.30952891 14.40387025 7.3125 18.25 C4.18596768 21.96803843 1.90125656 23.71683413 -2.9375 24.4375 C-7.82797655 23.73886049 -10.79929923 21.48086428 -13.875 17.6875 C-15.3877643 14.07367417 -15.60395126 11.89213031 -15 8 C-10.88287841 1.65434471 -7.68558393 -0.52105654 0 0 Z " fill="#F8FAFE" transform="translate(259,178)"/>
<path d="M0 0 C4.09206332 1.808121 6.69807584 4.16345973 9 8 C9.65657858 12.07078717 9.8269701 14.37414557 7.96484375 18.03515625 C5.30976933 21.63688673 2.95150032 23.43428506 -1.5 24.1875 C-6.05810554 24.34864515 -8.58276815 23.0917812 -12 20 C-14.1633006 17.25981924 -14.92352448 15.51347849 -15.4375 12.0625 C-14.76566218 7.35963526 -12.43211386 4.4814971 -9.1875 1.125 C-5.96860302 -0.53043273 -3.56753756 -0.37553027 0 0 Z " fill="#F8FAFE" transform="translate(149,133)"/>
<path d="M0 0 C4.34426379 2.25567543 7.05791513 4.46846864 9 9 C9.58496307 12.92760919 9.18285914 14.65459941 7.3125 18.1875 C3.97291591 22.24915632 1.76783892 23.81058869 -3.5 24.375 C-7.31177679 23.96659534 -9.06791771 23.44340191 -12 21 C-14.87313616 16.64075893 -15.81745174 13.17719438 -15 8 C-10.91098686 1.71017245 -7.66135078 -0.6384459 0 0 Z " fill="#F8FAFE" transform="translate(327,329)"/>
<path d="M0 0 C3.02023587 3.02023587 4.01040048 4.82973704 4.5625 9.0625 C3.98998512 13.83345735 1.52317882 16.85182118 -1.8125 20.1875 C-6.29655683 21.24303904 -10.41507967 21.72268225 -14.75 20.0625 C-18.48506998 16.66698184 -19.67030393 14.30729401 -20.3125 9.25 C-20.12254288 4.46488963 -18.26371898 2.40863772 -14.8125 -0.8125 C-9.76238865 -3.86914634 -4.86921742 -3.13794012 0 0 Z " fill="#F9FAFE" transform="translate(331.8125,169.8125)"/>
<path d="M0 0 C3.40654184 2.14760246 5.77828524 4.11272577 7 8 C7.51803412 11.43197604 7.60068874 13.84658626 5.97265625 16.97265625 C3.26506942 20.62527338 0.98231115 22.42579828 -3.5625 23.125 C-8.41091065 23.30426897 -10.94330899 21.75048391 -14.57421875 18.66015625 C-17.19474403 15.60885969 -17.21986129 11.89754113 -17 8 C-13.29602275 0.30712416 -8.08880735 -2.42336738 0 0 Z " fill="#F9FBFE" transform="translate(193,168)"/>
<path d="M0 0 C3.72943037 2.0475304 7.19368209 4.06860219 9 8 C9.30175096 12.78229549 8.64820072 16.70725727 5.625 20.5 C2.56267712 23.41649798 0.89144713 23.8799975 -3.25 24.4375 C-7.58342275 23.93193401 -9.4927044 22.94474829 -12.6015625 19.9765625 C-15.22699324 16.26575816 -15.62693258 12.4389709 -15 8 C-13.39597346 4.72483284 -11.03021069 2.73111727 -8.0625 0.625 C-5.15227888 -0.25688519 -3.03383286 -0.36405994 0 0 Z " fill="#F9FAFE" transform="translate(259,88)"/>
<path d="M0 0 C4.28501096 2.26853522 7.26405481 4.40485096 9 9 C9.30032461 12.92567163 9.20982389 16.50882171 6.65625 19.65625 C3.436762 22.37072028 0.90490131 23.89558831 -3.25 24.375 C-8.24411574 23.87558843 -9.52817066 22.55256956 -13 19 C-15.31205572 15.7421033 -15.47249357 12.93744642 -15 9 C-11.58746873 2.55410759 -7.52669289 -1.07524184 0 0 Z " fill="#F9FBFE" transform="translate(191,329)"/>
<path d="M0 0 C3.70390021 2.02666238 5.65363011 3.48044516 8 7 C8.69920885 11.79689791 8.71482085 15.77459282 6.25 20 C2.94287852 22.93966354 1.09498324 23.83471951 -3.3125 24.5 C-8.17756126 23.84033068 -10.83152337 21.67865507 -14 18 C-15.50186547 13.49440359 -15.71589695 9.65786663 -13.8125 5.25 C-9.89582083 0.38791551 -6.16816253 -0.75749364 0 0 Z " fill="#F9FBFE" transform="translate(338,245)"/>
<path d="M0 0 C2.70552388 2.19823815 4.44778333 3.89556667 6 7 C6.37838031 12.01353911 6.13135639 15.00482115 3 19 C0.14950668 21.92967369 -1.3629947 22.90734468 -5.4375 23.5 C-9.62737021 22.91194804 -11.73951177 21.65388577 -15 19 C-17.8288298 14.7567553 -17.65268001 10.98265471 -17 6 C-12.92808609 -0.98042384 -7.44330557 -2.09633205 0 0 Z " fill="#FAFBFE" transform="translate(183,246)"/>
</svg>
