<svg
        xmlns="http://www.w3.org/2000/svg"
        viewBox="0 0 60 25"
        width="600"
        height="250"
      >
        <path
          d="M58,21.467 L58,23 L50.368,23 L50.368,21.467 L58,21.467 Z M39.684,21.467 L39.684,23 L32.053,23 L32.053,21.467 L39.684,21.467 Z M45.639,21.467 L45.025,23 L44.419,21.467 L45.639,21.467 Z M28.542,21.467 C27.447,22.419 26.003,23 24.391,23 L12.211,23 L12.211,21.467 Z M10.684,21.467 L10.684,23 L0,23 L0,21.467 L10.684,21.467 Z M39.684,18.4 L39.684,19.933 L32.053,19.933 L32.053,18.4 L39.684,18.4 Z M46.832,18.4 L46.238,19.933 L43.821,19.933 L43.223,18.4 L46.832,18.4 Z M30.068,18.4 C29.931,18.945 29.711,19.46 29.427,19.933 L12.211,19.933 L12.211,18.4 Z M10.684,18.4 L10.684,19.933 L0,19.933 L0,18.4 L10.684,18.4 Z M58,18.4 L58,19.933 L50.368,19.933 L50.368,18.4 L58,18.4 Z M54.947,15.333 L54.947,16.867 L50.368,16.867 L50.368,15.333 L54.947,15.333 Z M39.684,15.333 L39.684,16.867 L35.105,16.867 L35.105,15.333 L39.684,15.333 Z M48.029,15.333 L47.43,16.867 L42.623,16.867 L42.019,15.333 L48.029,15.333 Z M29.855,15.333 C29.992,15.822 30.068,16.336 30.068,16.867 L24.421,16.867 L24.421,15.333 Z M19.842,15.333 L19.842,16.867 L15.263,16.867 L15.263,15.333 L19.842,15.333 Z M7.632,15.333 L7.632,16.867 L3.053,16.867 L3.053,15.333 L7.632,15.333 Z M54.947,12.267 L54.947,13.8 L50.368,13.8 L50.368,12.267 L54.947,12.267 Z M39.684,12.267 L39.684,13.8 L35.105,13.8 L35.105,12.267 L39.684,12.267 Z M49.225,12.267 L48.628,13.8 L41.409,13.8 L40.817,12.267 L49.225,12.267 Z M27.977,12.267 C28.504,12.699 28.957,13.218 29.305,13.8 L15.263,13.8 L15.263,12.267 Z M7.632,12.267 L7.632,13.8 L3.053,13.8 L3.053,12.267 L7.632,12.267 Z M44.599,9.2 L45.026,10.439 L45.454,9.2 L54.947,9.2 L54.947,10.733 L50.368,10.733 L50.368,9.324 L49.849,10.733 L40.188,10.733 L39.684,9.324 L39.684,10.733 L35.105,10.733 L35.105,9.2 L44.599,9.2 Z M7.632,9.2 L7.632,10.733 L3.053,10.733 L3.053,9.2 L7.632,9.2 Z M29.305,9.2 C28.957,9.782 28.504,10.3 27.977,10.733 L15.263,10.733 L15.263,9.2 Z M54.947,6.133 L54.947,7.667 L45.983,7.667 L46.523,6.133 L54.947,6.133 Z M43.534,6.133 L44.075,7.667 L35.105,7.667 L35.105,6.133 L43.534,6.133 Z M30.068,6.133 C30.068,6.664 29.992,7.178 29.855,7.667 L24.421,7.667 L24.421,6.133 Z M19.842,6.133 L19.842,7.667 L15.263,7.667 L15.263,6.133 L19.842,6.133 Z M7.632,6.133 L7.632,7.667 L3.053,7.667 L3.053,6.133 L7.632,6.133 Z M42.477,3.067 L43.008,4.6 L32.053,4.6 L32.053,3.067 L42.477,3.067 Z M58,3.067 L58,4.6 L47.039,4.6 L47.59,3.067 L58,3.067 Z M29.427,3.067 C29.711,3.54 29.931,4.055 30.068,4.6 L12.211,4.6 L12.211,3.067 Z M10.684,3.067 L10.684,4.6 L0,4.6 L0,3.067 L10.684,3.067 Z M58,0 L58,1.533 L49.244,1.533 L49.823,0 L58,0 Z M47.192,0 L47.771,1.533 L38.348,1.533 L38.927,0 L47.192,0 Z M26.232,0 C27.304,1.065 28.376,1.64 29.427,1.533 L12.211,1.533 L12.211,0 Z M10.684,0 L10.684,1.533 L0,1.533 L0,0 L10.684,0 Z"
          fill="#fff"
        />
      </svg>